<mxfile host="app.diagrams.net" agent="Mozilla/5.0 (X11; Linux x86_64) AppleWebKit/537.36 (KHTML, like Gecko) Chrome/115.0.0.0 Safari/537.36" version="24.7.5">
  <diagram name="第 1 页" id="F98HiGCvZdd3YbrlXrBQ">
    <mxGraphModel dx="1207" dy="691" grid="1" gridSize="10" guides="1" tooltips="1" connect="1" arrows="1" fold="1" page="1" pageScale="1" pageWidth="827" pageHeight="1169" math="0" shadow="0">
      <root>
        <mxCell id="0" />
        <mxCell id="1" parent="0" />
        <mxCell id="yesLG9HlM4l9e_gfq--7-2" value="list" style="rounded=0;whiteSpace=wrap;html=1;strokeWidth=2;fontSize=17;" vertex="1" parent="1">
          <mxGeometry x="170" y="260" width="70" height="30" as="geometry" />
        </mxCell>
        <mxCell id="yesLG9HlM4l9e_gfq--7-3" value="set" style="rounded=0;whiteSpace=wrap;html=1;strokeWidth=2;fontSize=17;" vertex="1" parent="1">
          <mxGeometry x="170" y="300" width="70" height="30" as="geometry" />
        </mxCell>
        <mxCell id="yesLG9HlM4l9e_gfq--7-4" value="hash" style="rounded=0;whiteSpace=wrap;html=1;strokeWidth=2;fontSize=17;" vertex="1" parent="1">
          <mxGeometry x="170" y="340" width="70" height="30" as="geometry" />
        </mxCell>
        <mxCell id="yesLG9HlM4l9e_gfq--7-5" value="zset" style="rounded=0;whiteSpace=wrap;html=1;strokeWidth=2;fontSize=17;" vertex="1" parent="1">
          <mxGeometry x="170" y="380" width="70" height="30" as="geometry" />
        </mxCell>
        <mxCell id="yesLG9HlM4l9e_gfq--7-6" value="bitmap" style="rounded=0;whiteSpace=wrap;html=1;strokeWidth=2;fontSize=17;" vertex="1" parent="1">
          <mxGeometry x="170" y="420" width="70" height="30" as="geometry" />
        </mxCell>
        <mxCell id="yesLG9HlM4l9e_gfq--7-7" value="string" style="rounded=0;whiteSpace=wrap;html=1;strokeWidth=2;fontSize=17;" vertex="1" parent="1">
          <mxGeometry x="170" y="460" width="70" height="30" as="geometry" />
        </mxCell>
        <mxCell id="yesLG9HlM4l9e_gfq--7-14" value="quicklist" style="rounded=0;whiteSpace=wrap;html=1;strokeWidth=2;fontSize=17;" vertex="1" parent="1">
          <mxGeometry x="310" y="220" width="70" height="30" as="geometry" />
        </mxCell>
        <mxCell id="yesLG9HlM4l9e_gfq--7-15" value="listpack" style="rounded=0;whiteSpace=wrap;html=1;strokeWidth=2;fontSize=17;" vertex="1" parent="1">
          <mxGeometry x="430" y="300" width="70" height="30" as="geometry" />
        </mxCell>
        <mxCell id="yesLG9HlM4l9e_gfq--7-16" value="双向链表" style="rounded=0;whiteSpace=wrap;html=1;strokeWidth=2;fontSize=17;" vertex="1" parent="1">
          <mxGeometry x="430" y="260" width="70" height="30" as="geometry" />
        </mxCell>
        <mxCell id="yesLG9HlM4l9e_gfq--7-17" value="" style="endArrow=none;html=1;rounded=0;exitX=1;exitY=0.5;exitDx=0;exitDy=0;entryX=0;entryY=0.5;entryDx=0;entryDy=0;strokeWidth=2;fontSize=17;" edge="1" parent="1" source="yesLG9HlM4l9e_gfq--7-14" target="yesLG9HlM4l9e_gfq--7-15">
          <mxGeometry width="50" height="50" relative="1" as="geometry">
            <mxPoint x="390" y="390" as="sourcePoint" />
            <mxPoint x="440" y="340" as="targetPoint" />
          </mxGeometry>
        </mxCell>
        <mxCell id="yesLG9HlM4l9e_gfq--7-18" value="" style="endArrow=none;html=1;rounded=0;exitX=1;exitY=0.5;exitDx=0;exitDy=0;entryX=0;entryY=0.5;entryDx=0;entryDy=0;strokeWidth=2;fontSize=17;" edge="1" parent="1" source="yesLG9HlM4l9e_gfq--7-14" target="yesLG9HlM4l9e_gfq--7-16">
          <mxGeometry width="50" height="50" relative="1" as="geometry">
            <mxPoint x="390" y="265" as="sourcePoint" />
            <mxPoint x="450" y="235" as="targetPoint" />
          </mxGeometry>
        </mxCell>
        <mxCell id="yesLG9HlM4l9e_gfq--7-19" value="dict" style="rounded=0;whiteSpace=wrap;html=1;strokeWidth=2;fontSize=17;" vertex="1" parent="1">
          <mxGeometry x="320" y="340" width="70" height="30" as="geometry" />
        </mxCell>
        <mxCell id="yesLG9HlM4l9e_gfq--7-20" value="" style="endArrow=none;html=1;rounded=0;exitX=1;exitY=0.5;exitDx=0;exitDy=0;entryX=0;entryY=0.5;entryDx=0;entryDy=0;strokeWidth=2;fontSize=17;" edge="1" parent="1" source="yesLG9HlM4l9e_gfq--7-3" target="yesLG9HlM4l9e_gfq--7-19">
          <mxGeometry width="50" height="50" relative="1" as="geometry">
            <mxPoint x="390" y="265" as="sourcePoint" />
            <mxPoint x="450" y="295" as="targetPoint" />
          </mxGeometry>
        </mxCell>
        <mxCell id="yesLG9HlM4l9e_gfq--7-21" value="" style="endArrow=none;html=1;rounded=0;exitX=1;exitY=0.5;exitDx=0;exitDy=0;entryX=0;entryY=0.5;entryDx=0;entryDy=0;strokeWidth=2;fontSize=17;" edge="1" parent="1" source="yesLG9HlM4l9e_gfq--7-4" target="yesLG9HlM4l9e_gfq--7-19">
          <mxGeometry width="50" height="50" relative="1" as="geometry">
            <mxPoint x="250" y="315" as="sourcePoint" />
            <mxPoint x="330" y="335" as="targetPoint" />
          </mxGeometry>
        </mxCell>
        <mxCell id="yesLG9HlM4l9e_gfq--7-22" value="skiplist" style="rounded=0;whiteSpace=wrap;html=1;strokeWidth=2;fontSize=17;" vertex="1" parent="1">
          <mxGeometry x="320" y="380" width="70" height="30" as="geometry" />
        </mxCell>
        <mxCell id="yesLG9HlM4l9e_gfq--7-23" value="" style="endArrow=none;html=1;rounded=0;exitX=1;exitY=0.5;exitDx=0;exitDy=0;entryX=0;entryY=0.5;entryDx=0;entryDy=0;strokeWidth=2;fontSize=17;" edge="1" parent="1" source="yesLG9HlM4l9e_gfq--7-5" target="yesLG9HlM4l9e_gfq--7-22">
          <mxGeometry width="50" height="50" relative="1" as="geometry">
            <mxPoint x="250" y="355" as="sourcePoint" />
            <mxPoint x="330" y="325" as="targetPoint" />
          </mxGeometry>
        </mxCell>
        <mxCell id="yesLG9HlM4l9e_gfq--7-24" value="sds" style="rounded=0;whiteSpace=wrap;html=1;strokeWidth=2;fontSize=17;" vertex="1" parent="1">
          <mxGeometry x="320" y="440" width="70" height="30" as="geometry" />
        </mxCell>
        <mxCell id="yesLG9HlM4l9e_gfq--7-25" value="" style="endArrow=none;html=1;rounded=0;exitX=1;exitY=0.5;exitDx=0;exitDy=0;entryX=0;entryY=0.5;entryDx=0;entryDy=0;strokeWidth=2;fontSize=17;" edge="1" parent="1" source="yesLG9HlM4l9e_gfq--7-6" target="yesLG9HlM4l9e_gfq--7-24">
          <mxGeometry width="50" height="50" relative="1" as="geometry">
            <mxPoint x="250" y="395" as="sourcePoint" />
            <mxPoint x="330" y="395" as="targetPoint" />
          </mxGeometry>
        </mxCell>
        <mxCell id="yesLG9HlM4l9e_gfq--7-26" value="" style="endArrow=none;html=1;rounded=0;exitX=1;exitY=0.5;exitDx=0;exitDy=0;entryX=0;entryY=0.5;entryDx=0;entryDy=0;strokeWidth=2;fontSize=17;" edge="1" parent="1" source="yesLG9HlM4l9e_gfq--7-7" target="yesLG9HlM4l9e_gfq--7-24">
          <mxGeometry width="50" height="50" relative="1" as="geometry">
            <mxPoint x="260" y="405" as="sourcePoint" />
            <mxPoint x="340" y="405" as="targetPoint" />
          </mxGeometry>
        </mxCell>
        <mxCell id="yesLG9HlM4l9e_gfq--7-27" value="" style="endArrow=none;html=1;rounded=0;exitX=1;exitY=0.5;exitDx=0;exitDy=0;entryX=0;entryY=0.5;entryDx=0;entryDy=0;strokeWidth=2;fontSize=17;" edge="1" parent="1" source="yesLG9HlM4l9e_gfq--7-4" target="yesLG9HlM4l9e_gfq--7-15">
          <mxGeometry width="50" height="50" relative="1" as="geometry">
            <mxPoint x="390" y="390" as="sourcePoint" />
            <mxPoint x="440" y="340" as="targetPoint" />
          </mxGeometry>
        </mxCell>
        <mxCell id="yesLG9HlM4l9e_gfq--7-28" value="" style="endArrow=none;html=1;rounded=0;exitX=1;exitY=0.5;exitDx=0;exitDy=0;entryX=0;entryY=0.5;entryDx=0;entryDy=0;strokeWidth=2;fontSize=17;" edge="1" parent="1" source="yesLG9HlM4l9e_gfq--7-3" target="yesLG9HlM4l9e_gfq--7-15">
          <mxGeometry width="50" height="50" relative="1" as="geometry">
            <mxPoint x="270" y="435" as="sourcePoint" />
            <mxPoint x="350" y="435" as="targetPoint" />
          </mxGeometry>
        </mxCell>
        <mxCell id="yesLG9HlM4l9e_gfq--7-30" value="" style="endArrow=none;html=1;rounded=0;exitX=1;exitY=0.5;exitDx=0;exitDy=0;entryX=0;entryY=0.5;entryDx=0;entryDy=0;strokeWidth=2;fontSize=17;" edge="1" parent="1" source="yesLG9HlM4l9e_gfq--7-2" target="yesLG9HlM4l9e_gfq--7-14">
          <mxGeometry width="50" height="50" relative="1" as="geometry">
            <mxPoint x="250" y="325" as="sourcePoint" />
            <mxPoint x="440" y="325" as="targetPoint" />
          </mxGeometry>
        </mxCell>
        <mxCell id="yesLG9HlM4l9e_gfq--7-31" value="" style="endArrow=none;html=1;rounded=0;exitX=1;exitY=0.5;exitDx=0;exitDy=0;entryX=0;entryY=0.5;entryDx=0;entryDy=0;strokeWidth=2;fontSize=17;" edge="1" parent="1" source="yesLG9HlM4l9e_gfq--7-2" target="yesLG9HlM4l9e_gfq--7-15">
          <mxGeometry width="50" height="50" relative="1" as="geometry">
            <mxPoint x="250" y="285" as="sourcePoint" />
            <mxPoint x="320" y="245" as="targetPoint" />
          </mxGeometry>
        </mxCell>
      </root>
    </mxGraphModel>
  </diagram>
</mxfile>
